<?xml version="1.0" encoding="UTF-8"?><svg id="a" xmlns="http://www.w3.org/2000/svg" viewBox="0 0 254.1 20.73"><defs><style>.b{fill:#010101;}</style></defs><path class="b" d="m8.07,8.73c-2.55-.69-4.86-1.29-4.86-3.3,0-1.89,1.71-3.18,4.11-3.18,2.19,0,4.29.75,5.79,2.4l1.5-1.83C12.93,1.05,10.56.03,7.5.03,3.57.03.63,2.28.63,5.58c0,3.93,3.57,4.83,6.78,5.67,2.64.72,5.07,1.38,5.07,3.78,0,1.53-1.14,3.45-4.71,3.45-2.82,0-4.98-1.38-6.3-2.85l-1.47,1.89c1.65,1.86,4.2,3.18,7.68,3.18,5.4,0,7.38-2.97,7.38-5.88,0-4.2-3.72-5.22-6.99-6.09Z"/><path class="b" d="m33.9,0c-5.94,0-9.93,4.44-9.93,10.35s3.99,10.35,9.93,10.35,9.93-4.44,9.93-10.35S39.81,0,33.9,0Zm0,18.48c-4.5,0-7.35-3.48-7.35-8.13s2.85-8.13,7.35-8.13,7.35,3.45,7.35,8.13-2.88,8.13-7.35,8.13Z"/><polygon class="b" points="67.8 16.14 56.28 .33 53.73 .33 53.73 20.34 56.22 20.34 56.22 4.2 67.89 20.34 70.29 20.34 70.29 .33 67.8 .33 67.8 16.14"/><path class="b" d="m88.05,14.28c0,2.49-1.56,4.2-4.02,4.2-1.74,0-2.91-.93-3.78-1.98l-1.29,1.89c1.38,1.62,3.09,2.31,5.22,2.31,3.57,0,6.36-2.04,6.36-6.39V.33h-2.49v13.95Z"/><path class="b" d="m106.41.33l-8.04,20.01h2.76l1.77-4.44h10.14l1.77,4.44h2.76L109.5.33h-3.09Zm-2.79,13.35l4.35-11.13,4.32,11.13h-8.67Z"/><path class="b" d="m147.9,12.27h6.87v4.08c-.99.99-2.97,2.16-5.37,2.16-4.38,0-7.71-3.42-7.71-8.16s3.33-8.13,7.71-8.13c2.4,0,4.53,1.14,5.79,2.76l1.98-1.23c-1.77-2.19-4.23-3.75-7.77-3.75-5.7,0-10.29,4.14-10.29,10.35s4.59,10.38,10.29,10.38c3.27,0,6-1.38,7.86-3.45v-7.23h-9.36v2.22Z"/><path class="b" d="m173.19.33l-8.04,20.01h2.76l1.77-4.44h10.14l1.77,4.44h2.76L176.28.33h-3.09Zm-2.79,13.35l4.35-11.13,4.32,11.13h-8.67Z"/><path class="b" d="m199.83,12.27h6.87v4.08c-.99.99-2.97,2.16-5.37,2.16-4.38,0-7.71-3.42-7.71-8.16s3.33-8.13,7.71-8.13c2.4,0,4.53,1.14,5.79,2.76l1.98-1.23c-1.77-2.19-4.23-3.75-7.77-3.75-5.7,0-10.29,4.14-10.29,10.35s4.59,10.38,10.29,10.38c3.27,0,6-1.38,7.86-3.45v-7.23h-9.36v2.22Z"/><polygon class="b" points="219.24 20.34 232.35 20.34 232.35 18.12 221.73 18.12 221.73 11.22 232.14 11.22 232.14 9 221.73 9 221.73 2.55 232.35 2.55 232.35 .33 219.24 .33 219.24 20.34"/><polygon class="b" points="244.8 18.12 244.8 .33 242.31 .33 242.31 20.34 254.1 20.34 254.1 18.12 244.8 18.12"/></svg>